<?xml version="1.0" encoding="utf-8"?>
<!-- Generator: Adobe Adobe Illustrator 24.2.0, SVG Export Plug-In . SVG Version: 6.00 Build 0)  -->
<svg version="1.1" xmlns="http://www.w3.org/2000/svg" xmlns:xlink="http://www.w3.org/1999/xlink" x="0px" y="0px"
	 width="734.26px" height="662.37px" viewBox="0 0 734.26 662.37" style="enable-background:new 0 0 734.26 662.37;"
	 xml:space="preserve">
<style type="text/css">
	.st0{display:none;}
	.st1{display:inline;fill:#2651C9;}
	.st2{fill:none;stroke:#2651C9;stroke-width:24;stroke-linecap:round;stroke-linejoin:round;stroke-miterlimit:10;}
	.st3{fill:url(#SVGID_1_);}
	.st4{fill:url(#SVGID_2_);}
	.st5{fill:none;stroke:#000000;stroke-width:24;stroke-linecap:round;stroke-miterlimit:10;}
	.st6{fill:none;stroke:#2651C9;stroke-width:24;stroke-linecap:round;stroke-miterlimit:10;}
	.st7{fill:none;stroke:#2651C9;stroke-width:8;stroke-linecap:round;stroke-linejoin:round;stroke-miterlimit:10;}
	.st8{fill:#2651C9;}
	.st9{fill:url(#SVGID_5_);}
	.st10{fill:url(#SVGID_6_);}
	.st11{fill:none;}
	.st12{fill:url(#SVGID_7_);}
	.st13{fill:url(#SVGID_8_);}
	.st14{fill:url(#SVGID_11_);}
	.st15{fill:url(#SVGID_12_);}
	.st16{fill:url(#SVGID_13_);}
	.st17{fill:url(#SVGID_14_);}
	.st18{fill:url(#SVGID_17_);}
	.st19{fill:url(#SVGID_18_);}
	.st20{fill:url(#SVGID_19_);}
	.st21{fill:url(#SVGID_20_);}
	.st22{fill:url(#SVGID_23_);}
	.st23{fill:url(#SVGID_24_);}
	.st24{fill:url(#SVGID_25_);}
	.st25{fill:url(#SVGID_26_);}
	.st26{fill:url(#SVGID_29_);}
	.st27{fill:url(#SVGID_30_);}
	.st28{fill:url(#SVGID_31_);}
	.st29{fill:url(#SVGID_32_);}
	.st30{fill:url(#SVGID_35_);}
	.st31{fill:url(#SVGID_36_);}
	.st32{fill:#FFFFFF;}
	.st33{fill:url(#SVGID_37_);}
	.st34{fill:url(#SVGID_38_);}
	.st35{fill:url(#SVGID_41_);}
	.st36{fill:url(#SVGID_42_);}
	.st37{fill:#2651C9;stroke:#000000;stroke-width:24;stroke-linecap:round;stroke-miterlimit:10;}
	.st38{fill:#FFFFFF;stroke:#000000;stroke-width:24;stroke-linecap:round;stroke-miterlimit:10;}
</style>
<g id="Calque_1">
</g>
<g id="Calque_3">
</g>
<g id="Calque_2">
</g>
<g id="Calque_6">
</g>
<g id="Calque_4">
</g>
<g id="Calque_5">
</g>
<g id="Calque_8" class="st0">
</g>
<g id="Calque_7">
	<g>
		<g>
			<defs>
				<path id="SVGID_9_" d="M5535.1-868.35"/>
			</defs>
			<clipPath id="SVGID_1_">
				<use xlink:href="#SVGID_9_"  style="overflow:visible;"/>
			</clipPath>
		</g>
	</g>
	<g>
		<g>
			<g>
				<defs>
					<path id="SVGID_15_" d="M463.94-1574.98"/>
				</defs>
				<clipPath id="SVGID_2_">
					<use xlink:href="#SVGID_15_"  style="overflow:visible;"/>
				</clipPath>
			</g>
		</g>
	</g>
	<g>
		<g>
			<g>
				<defs>
					<path id="SVGID_21_" d="M463.94-1574.98"/>
				</defs>
				<clipPath id="SVGID_4_">
					<use xlink:href="#SVGID_21_"  style="overflow:visible;"/>
				</clipPath>
			</g>
		</g>
	</g>
	<g>
		<path class="st8" d="M627.03,347.41H518.35c-6.63,0-12-5.37-12-12v-126.2c0-6.63,5.37-12,12-12h52.2c6.63,0,12,5.37,12,12
			s-5.37,12-12,12h-40.2v102.2h84.68V192.92L365.28,62.33L125.58,192.79v130.63h81.26v-102.2h-46.19c-6.63,0-12-5.37-12-12
			s5.37-12,12-12h58.19c6.63,0,12,5.37,12,12v126.2c0,6.63-5.37,12-12,12H113.58c-6.63,0-12-5.37-12-12V185.65
			c0-4.4,2.4-8.44,6.26-10.54L359.43,38.19c3.51-1.91,7.75-1.95,11.3-0.09l261.86,136.92c3.96,2.07,6.44,6.17,6.44,10.63v149.76
			C639.03,342.04,633.66,347.41,627.03,347.41z"/>
		<g>
			
				<radialGradient id="SVGID_5_" cx="801.9168" cy="-556.4449" r="55.9266" gradientTransform="matrix(1.0779 0 0 0.7481 -428.934 558.1865)" gradientUnits="userSpaceOnUse">
				<stop  offset="0" style="stop-color:#10B2D7"/>
				<stop  offset="1" style="stop-color:#2B41C7"/>
			</radialGradient>
			<path class="st9" d="M489.09,151.37h-88.03c-5.64,0-10.22-4.57-10.22-10.22s4.57-10.22,10.22-10.22h54.01"/>
			
				<radialGradient id="SVGID_6_" cx="4139.4692" cy="-554.9309" r="55.9266" gradientTransform="matrix(-1.0779 0 0 0.7481 4760.228 558.1865)" gradientUnits="userSpaceOnUse">
				<stop  offset="0" style="stop-color:#13B3D7"/>
				<stop  offset="1" style="stop-color:#2E35C6"/>
			</radialGradient>
			<path class="st10" d="M244.8,152.51h88.03c5.64,0,10.22-4.57,10.22-10.22c0-5.64-4.57-10.22-10.22-10.22h-54.01"/>
		</g>
		<g>
			<g>
				<defs>
					<path id="SVGID_27_" d="M463.94,141.16"/>
				</defs>
				<clipPath id="SVGID_7_">
					<use xlink:href="#SVGID_27_"  style="overflow:visible;"/>
				</clipPath>
			</g>
		</g>
		<path class="st8" d="M285.6,432.53H101.58v-55.48c0-6.63,5.37-12,12-12s12,5.37,12,12v31.48H261.6V197.21h81.32
			c6.63,0,12,5.37,12,12s-5.37,12-12,12H285.6V432.53z"/>
		<g>
			<path class="st8" d="M660.82,375.12c-0.02,0-0.07,0-0.09,0c-3.93,0.02-7.62,1.58-10.38,4.37c-1.78,1.8-3.03,3.98-3.7,6.35H469.29
				V209.21c0-2.21-1.79-4-4-4h-74.45c-2.21,0-4,1.79-4,4c0,2.21,1.79,4,4,4h70.45v176.63c0,2.21,1.79,4,4,4h181.37
				c1.75,6.17,7.44,10.72,14.15,10.72c0.02,0,0.07,0,0.09,0c8.11-0.05,14.68-6.69,14.63-14.81
				C675.49,381.68,668.89,375.12,660.82,375.12z M660.85,396.57c-0.01,0-0.03,0-0.04,0c-3.7,0-6.7-2.98-6.72-6.69
				c-0.02-3.71,2.97-6.74,6.69-6.76c0.01,0,0.03,0,0.04,0c3.7,0,6.7,2.98,6.72,6.69C667.56,393.52,664.57,396.55,660.85,396.57z"/>
		</g>
		<g>
			<path class="st8" d="M339.04,482.78c0.1-0.36,0.18-0.73,0.18-1.12V265.98c0-2.21-1.79-4-4-4s-4,1.79-4,4v215.69
				c0,0.39,0.07,0.76,0.18,1.11c-6.3,1.7-10.94,7.46-10.9,14.29c0.05,8.07,6.65,14.64,14.72,14.64c0.02,0,0.07,0,0.09,0
				c3.93-0.02,7.62-1.58,10.38-4.37c2.77-2.8,4.28-6.5,4.25-10.44C349.9,490.15,345.27,484.47,339.04,482.78z M335.26,503.71
				c-0.01,0-0.03,0-0.04,0c-3.7,0-6.7-2.98-6.72-6.69c-0.02-3.71,2.97-6.74,6.69-6.76c0.01,0,0.03,0,0.04,0
				c3.7,0,6.7,2.98,6.72,6.69C341.97,500.66,338.97,503.69,335.26,503.71z"/>
			<path class="st8" d="M284.87,470.94H89.22c-1.75-6.17-7.44-10.72-14.15-10.72c-0.02,0-0.07,0-0.09,0
				c-3.93,0.02-7.62,1.58-10.38,4.37c-2.76,2.8-4.28,6.5-4.25,10.44c0.05,8.07,6.65,14.64,14.72,14.64c0.02,0,0.07,0,0.09,0
				c3.93-0.02,7.62-1.58,10.38-4.37c1.78-1.8,3.03-3.98,3.7-6.35h195.64c2.21,0,4-1.79,4-4
				C288.87,472.73,287.08,470.94,284.87,470.94z M75.1,481.67c-0.01,0-0.03,0-0.04,0c-3.7,0-6.7-2.98-6.72-6.69
				c-0.02-3.71,2.97-6.74,6.69-6.76c0.01,0,0.03,0,0.04,0c3.7,0,6.7,2.98,6.72,6.69C81.81,478.62,78.81,481.65,75.1,481.67z"/>
		</g>
		<g>
			<path class="st8" d="M408.53,430.57V265.98c0-2.21-1.79-4-4-4s-4,1.79-4,4v164.59c-6.21,1.76-10.76,7.48-10.72,14.24
				c0.05,8.07,6.65,14.64,14.72,14.64c0.02,0,0.07,0,0.09,0c8.11-0.05,14.68-6.69,14.63-14.81
				C419.22,437.95,414.68,432.31,408.53,430.57z M404.57,451.45c-0.01,0-0.03,0-0.04,0c-3.7,0-6.7-2.98-6.72-6.69
				c-0.02-3.71,2.97-6.74,6.69-6.76c0.01,0,0.03,0,0.04,0c3.7,0,6.7,2.98,6.72,6.69C411.28,448.4,408.29,451.43,404.57,451.45z"/>
		</g>
		<g>
			<g>
				<g>
					<radialGradient id="SVGID_8_" cx="326.6268" cy="586.2437" r="51.9439" gradientUnits="userSpaceOnUse">
						<stop  offset="0" style="stop-color:#09B0D6"/>
						<stop  offset="1" style="stop-color:#3E02BF"/>
					</radialGradient>
					<rect x="318.25" y="546.88" class="st13" width="16.76" height="78.72"/>
					<radialGradient id="SVGID_10_" cx="388.4124" cy="586.2437" r="67.0775" gradientUnits="userSpaceOnUse">
						<stop  offset="0" style="stop-color:#09B0D6"/>
						<stop  offset="1" style="stop-color:#3E02BF"/>
					</radialGradient>
					<polygon style="fill:url(#SVGID_10_);" points="354.48,546.88 354.48,560.93 379.62,560.93 379.62,625.6 396.38,625.6 
						396.38,560.93 422.34,560.93 422.34,546.88 					"/>
				</g>
			</g>
		</g>
		<g>
			<path class="st8" d="M83.98,607.78c-4.37-3.54-6.73-11.8-6.73-22.9c0-8.5,1.53-14.75,4.25-17.94c3.66-4.13,8.85-6.02,16.52-6.02
				h24.67v-14.04H96.01c-8.14,0-16.05,1.53-20.77,3.9c-10.5,5.43-16.52,18.29-16.52,35.64c0,14.52,3.9,25.73,11.21,32.1
				c6.14,5.31,12.39,7.08,25.38,7.08h27.38v-14.04H98.61C92,611.56,87.16,610.26,83.98,607.78z"/>
			<path class="st8" d="M281.07,611.56c-10.27,0-14.04-0.71-17.23-3.42c-3.19-3.19-3.42-4.01-3.89-17.11v-44.14h-16.76v32.51
				c-0.43-0.08-0.88-0.13-1.34-0.13h-36.98l-13.4-32.37h-19.24l-13.4,32.37h-36.98c-3.87,0-7,3.13-7,7c0,3.87,3.13,7,7,7h31.19
				l-13.39,32.35h18.21l12.89-32.34l0-0.01h22.39l12.98,32.35h17.92l-13.39-32.35h31.19c0.47,0,0.92-0.05,1.37-0.14
				c0.25,14.9,2.05,20.25,8.71,26.23c6.73,5.19,11.92,6.49,27.38,6.26h17.82v-14.04H281.07z M176.33,579.26l5.57-13.99l5.62,13.99
				H176.33z"/>
		</g>
		<g>
			<path class="st8" d="M545.44,607.78c-4.37-3.54-6.73-11.8-6.73-22.9c0-8.5,1.53-14.75,4.25-17.94c3.66-4.13,8.85-6.02,16.52-6.02
				h24.67v-14.04h-26.67c-8.14,0-16.05,1.53-20.77,3.9c-9.04,4.67-14.75,14.87-16.17,28.68h-65.03c0.47-7.44,1.06-9.44,3.42-12.75
				c3.66-4.6,7.2-5.67,19-5.78h21.83v-14.04h-28.33c-10.98,0-16.52,1.77-22.31,6.96c-8.38,7.55-12.63,18.29-12.63,31.98
				c0,13.46,4.01,24.79,11.21,31.75c6.02,5.9,14.16,8.03,30.21,8.03h21.83v-14.04h-21.13c-16.17,0-21.83-4.37-23.13-18.06h65.02
				c1.09,11.09,4.79,19.73,10.87,25.02c6.14,5.31,12.39,7.08,25.37,7.08h27.38v-14.04h-24.08
				C553.47,611.56,548.63,610.26,545.44,607.78z"/>
			<path class="st8" d="M653.79,546.88v32.22h-30.33v-32.22h-16.76v32.37h-26.93c-3.87,0-7,3.13-7,7c0,3.87,3.13,7,7,7h26.93v32.35
				h16.76v-32.35h30.33v32.35h16.76v-78.72H653.79z"/>
		</g>
	</g>
	<g>
		<g>
			<g>
				<defs>
					<path id="SVGID_33_" d="M1274.59,71.5"/>
				</defs>
				<clipPath id="SVGID_11_">
					<use xlink:href="#SVGID_33_"  style="overflow:visible;"/>
				</clipPath>
			</g>
		</g>
	</g>
	<g>
		<g>
			<g>
				<defs>
					<path id="SVGID_39_" d="M1324.1-1574.98"/>
				</defs>
				<clipPath id="SVGID_12_">
					<use xlink:href="#SVGID_39_"  style="overflow:visible;"/>
				</clipPath>
			</g>
		</g>
	</g>
</g>
</svg>
